<svg xmlns="http://www.w3.org/2000/svg" xmlns:xlink="http://www.w3.org/1999/xlink" version="1.1" x="0px" y="0px" viewBox="0 0 100 125" style="enable-background:new 0 0 100 100;" xml:space="preserve"><g><path d="M100,53.709H82.426l12.371,12.372l-5.242,5.243L71.938,53.709H58.952l17.233,17.229l-5.246,5.246L53.708,58.956v12.982   l17.618,17.614L66.078,94.8l-12.37-12.371V100h-7.42V82.429L33.918,94.8l-5.243-5.251l17.613-17.61V58.956L29.064,76.184   l-5.246-5.246l17.226-17.229h-12.98L10.448,71.324L5.2,66.081l12.372-12.372H0v-7.42h17.572L5.2,33.92l5.248-5.244l17.616,17.613   h12.982L23.818,29.064l5.246-5.247l17.224,17.225V28.058L28.675,10.443L33.921,5.2l12.367,12.372V0h7.42v17.572L66.078,5.2   l5.248,5.248L53.708,28.058v12.984l17.231-17.225l5.246,5.247L58.952,46.293h12.985l17.617-17.617l5.242,5.244L82.426,46.293H100   V53.709z"/></g><text x="0" y="115" fill="#000000" font-size="5px" font-weight="bold" font-family="'Helvetica Neue', Helvetica, Arial-Unicode, Arial, Sans-serif">Created by b farias</text><text x="0" y="120" fill="#000000" font-size="5px" font-weight="bold" font-family="'Helvetica Neue', Helvetica, Arial-Unicode, Arial, Sans-serif">from the Noun Project</text></svg>