<svg xmlns="http://www.w3.org/2000/svg" xmlns:xlink="http://www.w3.org/1999/xlink" version="1.1" x="0px" y="0px" viewBox="0 0 100 125" style="enable-background:new 0 0 100 100;" xml:space="preserve"><path d="M73.5,25.1c-6.2,5-12.6,12.1-10.2,20.2c-7.5-6.1-7.6-26.6-3.2-39.7c-25.1,9.3-25.5,28.9-24.5,36c-2.3-6.8-5.5-9.9-13.8-12.1  C25.7,43,9.7,55.6,12.7,71.9c2.5,13.3,10.7,20.4,19.9,23.6c-6-14.4,9.2-19.5,9.9-30c1.4,1.4,4,4.3,2.2,10c3.7-2.3,9.4-12.4,6.7-19  c8.8,4,21.2,23,16,37c8.5-3.7,15.4-9.6,18.3-17.4C95.3,49.7,69.9,45.9,73.5,25.1z"/><text x="0" y="115" fill="#000000" font-size="5px" font-weight="bold" font-family="'Helvetica Neue', Helvetica, Arial-Unicode, Arial, Sans-serif">Created by kiddo</text><text x="0" y="120" fill="#000000" font-size="5px" font-weight="bold" font-family="'Helvetica Neue', Helvetica, Arial-Unicode, Arial, Sans-serif">from the Noun Project</text></svg>