<svg xmlns:dc="http://purl.org/dc/elements/1.1/" xmlns:cc="http://creativecommons.org/ns#" xmlns:rdf="http://www.w3.org/1999/02/22-rdf-syntax-ns#" xmlns:svg="http://www.w3.org/2000/svg" xmlns="http://www.w3.org/2000/svg" xmlns:sodipodi="http://sodipodi.sourceforge.net/DTD/sodipodi-0.dtd" xmlns:inkscape="http://www.inkscape.org/namespaces/inkscape" version="1.1" x="0px" y="0px" viewBox="0 0 100 125"><g transform="translate(0,-952.36218)"><path style="text-indent:0;text-transform:none;direction:ltr;block-progression:tb;baseline-shift:baseline;color:#000000;enable-background:accumulate;" d="m 50,959.36219 c -23.73639,0 -42.9999998,19.26376 -42.9999998,43.00001 0,23.7363 19.2636098,43 42.9999998,43 23.73639,0 43,-19.2637 43,-43 0,-23.73625 -19.26361,-43.00001 -43,-43.00001 z m 0,2 c 22.65551,0 41,18.34464 41,41.00001 0,22.6554 -18.34449,41 -41,41 -22.65551,0 -40.9999998,-18.3446 -40.9999998,-41 0,-22.65537 18.3444898,-41.00001 40.9999998,-41.00001 z m -6,11 2,48.00001 8,0 2,-48.00001 -12,0 z m 2,52.00001 0,8 8,0 0,-8 -8,0 z" fill="#000000" fill-opacity="1" stroke="none" marker="none" visibility="visible" display="inline" overflow="visible"/></g><text x="0" y="115" fill="#000000" font-size="5px" font-weight="bold" font-family="'Helvetica Neue', Helvetica, Arial-Unicode, Arial, Sans-serif">Created by Rockicon</text><text x="0" y="120" fill="#000000" font-size="5px" font-weight="bold" font-family="'Helvetica Neue', Helvetica, Arial-Unicode, Arial, Sans-serif">from the Noun Project</text></svg>