<svg xmlns="http://www.w3.org/2000/svg" xmlns:xlink="http://www.w3.org/1999/xlink" version="1.1" x="0px" y="0px" viewBox="0 0 100 125" style="enable-background:new 0 0 100 100;" xml:space="preserve"><path d="M92.5,27.5c1.381,0,2.5-1.119,2.5-2.5s-1.119-2.5-2.5-2.5h-5V15c0-1.381-1.119-2.5-2.5-2.5h-7.5v-5  C77.5,6.119,76.381,5,75,5s-2.5,1.119-2.5,2.5v5h-5v-5C67.5,6.119,66.381,5,65,5s-2.5,1.119-2.5,2.5v5h-5v-5  C57.5,6.119,56.381,5,55,5s-2.5,1.119-2.5,2.5v5h-5v-5C47.5,6.119,46.381,5,45,5s-2.5,1.119-2.5,2.5v5h-5v-5  C37.5,6.119,36.381,5,35,5s-2.5,1.119-2.5,2.5v5h-5v-5C27.5,6.119,26.381,5,25,5s-2.5,1.119-2.5,2.5v5H15  c-1.381,0-2.5,1.119-2.5,2.5v7.5h-5C6.119,22.5,5,23.619,5,25s1.119,2.5,2.5,2.5h5v5h-5C6.119,32.5,5,33.619,5,35s1.119,2.5,2.5,2.5  h5v5h-5C6.119,42.5,5,43.619,5,45s1.119,2.5,2.5,2.5h5v5h-5C6.119,52.5,5,53.619,5,55s1.119,2.5,2.5,2.5h5v5h-5  C6.119,62.5,5,63.619,5,65s1.119,2.5,2.5,2.5h5v5h-5C6.119,72.5,5,73.619,5,75s1.119,2.5,2.5,2.5h5V85c0,1.381,1.119,2.5,2.5,2.5  h7.5v5c0,1.381,1.119,2.5,2.5,2.5s2.5-1.119,2.5-2.5v-5h5v5c0,1.381,1.119,2.5,2.5,2.5s2.5-1.119,2.5-2.5v-5h5v5  c0,1.381,1.119,2.5,2.5,2.5s2.5-1.119,2.5-2.5v-5h5v5c0,1.381,1.119,2.5,2.5,2.5s2.5-1.119,2.5-2.5v-5h5v5  c0,1.381,1.119,2.5,2.5,2.5s2.5-1.119,2.5-2.5v-5h5v5c0,1.381,1.119,2.5,2.5,2.5s2.5-1.119,2.5-2.5v-5H85c1.381,0,2.5-1.119,2.5-2.5  v-7.5h5c1.381,0,2.5-1.119,2.5-2.5s-1.119-2.5-2.5-2.5h-5v-5h5c1.381,0,2.5-1.119,2.5-2.5s-1.119-2.5-2.5-2.5h-5v-5h5  c1.381,0,2.5-1.119,2.5-2.5s-1.119-2.5-2.5-2.5h-5v-5h5c1.381,0,2.5-1.119,2.5-2.5s-1.119-2.5-2.5-2.5h-5v-5h5  c1.381,0,2.5-1.119,2.5-2.5s-1.119-2.5-2.5-2.5h-5v-5H92.5z M82.5,82.5h-65v-65h65V82.5z"/><path d="M35.465,77.103c0.889,0.563,2.037,0.51,2.869-0.135c0.833-0.645,1.172-1.742,0.849-2.744  c-0.729-2.257-0.898-4.592-0.551-6.833c0.51,1.414,1.228,2.761,2.147,3.986c2.91,3.88,7.549,6.167,12.388,6.167  c0.473,0,0.947-0.022,1.422-0.066c7.487-0.808,13.967-5.311,17.334-12.046c3.368-6.735,3.083-14.621-0.763-21.095  c-0.562-0.946-1.678-1.411-2.744-1.151c-1.069,0.262-1.84,1.191-1.901,2.29c-0.136,2.457-1.093,4.72-2.641,6.485  c1.218-12.281-5.553-24.165-17.385-29.211c-0.771-0.327-1.657-0.249-2.358,0.214c-0.701,0.463-1.122,1.247-1.122,2.086  c0,5.34-3.97,9.965-8.172,14.862c-4.416,5.146-8.983,10.466-9.449,17.284C24.839,65.184,28.701,72.813,35.465,77.103z   M30.374,57.535c0.353-5.162,4.191-9.634,8.255-14.368c3.755-4.375,7.615-8.872,8.917-14.276  c9.373,5.646,13.756,16.99,10.272,27.701c-0.294,0.905-0.049,1.898,0.632,2.563c0.68,0.664,1.678,0.886,2.578,0.568  c3.42-1.207,6.226-3.502,8.074-6.429c0.456,3.335-0.09,6.779-1.651,9.902c-2.603,5.206-7.612,8.687-13.362,9.308  c-3.587,0.334-7.151-1.247-9.31-4.126s-2.678-6.746-1.354-10.093c0.435-1.1,0.04-2.354-0.947-3.006  c-0.421-0.278-0.9-0.414-1.376-0.414c-0.642,0-1.278,0.246-1.76,0.724c-3.551,3.517-5.574,8.113-5.852,12.902  C31.244,65.365,30.103,61.508,30.374,57.535z"/><text x="0" y="115" fill="#000000" font-size="5px" font-weight="bold" font-family="'Helvetica Neue', Helvetica, Arial-Unicode, Arial, Sans-serif">Created by Arthur Shlain</text><text x="0" y="120" fill="#000000" font-size="5px" font-weight="bold" font-family="'Helvetica Neue', Helvetica, Arial-Unicode, Arial, Sans-serif">from the Noun Project</text></svg>